<svg xmlns="http://www.w3.org/2000/svg" width="1000" height="1000" viewBox="0 0 1000 1000">
  <rect width="100%" height="100%" fill="#fbfbfa"/>
  <text x="500" y="42" text-anchor="middle" font-size="28" font-weight="700" fill="#111827" font-family="Inter,Arial,sans-serif">RCFS F/A/S Barker iota mandala</text>
  <text x="500" y="70" text-anchor="middle" font-size="14" fill="#4b5563" font-family="Inter,Arial,sans-serif">nodes=21 depth=7 #ι=11</text>
  <g><line x1="484.60" y1="490.68" x2="478.03" y2="555.83" stroke="#9aa6b2" stroke-width="0.65" opacity="0.65" /><line x1="478.03" y1="555.83" x2="587.72" y2="552.05" stroke="#9aa6b2" stroke-width="0.65" opacity="0.65" /><line x1="587.72" y1="552.05" x2="644.00" y2="500.00" stroke="#9aa6b2" stroke-width="0.65" opacity="0.65" /><line x1="587.72" y1="552.05" x2="569.01" y2="626.39" stroke="#9aa6b2" stroke-width="0.65" opacity="0.65" /><line x1="569.01" y1="626.39" x2="656.47" y2="600.56" stroke="#9aa6b2" stroke-width="0.65" opacity="0.65" /><line x1="569.01" y1="626.39" x2="500.00" y2="686.00" stroke="#9aa6b2" stroke-width="0.65" opacity="0.65" /><line x1="500.00" y1="686.00" x2="594.71" y2="707.40" stroke="#9aa6b2" stroke-width="0.65" opacity="0.65" /><line x1="500.00" y1="686.00" x2="405.29" y2="707.40" stroke="#9aa6b2" stroke-width="0.65" opacity="0.65" /><line x1="405.29" y1="707.40" x2="461.57" y2="767.25" stroke="#9aa6b2" stroke-width="0.65" opacity="0.65" /><line x1="405.29" y1="707.40" x2="323.19" y2="704.05" stroke="#9aa6b2" stroke-width="0.65" opacity="0.65" /><line x1="478.03" y1="555.83" x2="400.33" y2="478.32" stroke="#9aa6b2" stroke-width="0.65" opacity="0.65" /><line x1="400.33" y1="478.32" x2="361.83" y2="540.57" stroke="#9aa6b2" stroke-width="0.65" opacity="0.65" /><line x1="400.33" y1="478.32" x2="391.17" y2="405.70" stroke="#9aa6b2" stroke-width="0.65" opacity="0.65" /><line x1="391.17" y1="405.70" x2="321.53" y2="447.60" stroke="#9aa6b2" stroke-width="0.65" opacity="0.65" /><line x1="391.17" y1="405.70" x2="422.73" y2="330.81" stroke="#9aa6b2" stroke-width="0.65" opacity="0.65" /><line x1="422.73" y1="330.81" x2="350.69" y2="327.69" stroke="#9aa6b2" stroke-width="0.65" opacity="0.65" /><line x1="422.73" y1="330.81" x2="467.55" y2="274.32" stroke="#9aa6b2" stroke-width="0.65" opacity="0.65" /><line x1="484.60" y1="490.68" x2="539.29" y2="454.66" stroke="#9aa6b2" stroke-width="0.65" opacity="0.65" /><line x1="539.29" y1="454.66" x2="542.37" y2="407.22" stroke="#9aa6b2" stroke-width="0.65" opacity="0.65" /><line x1="539.29" y1="454.66" x2="585.81" y2="444.85" stroke="#9aa6b2" stroke-width="0.65" opacity="0.65" /></g>
  <g><circle cx="484.60" cy="490.68" r="2.00" fill="#2f6db3" opacity="0.92" /><circle cx="478.03" cy="555.83" r="2.00" fill="#2e8b57" opacity="0.92" /><circle cx="587.72" cy="552.05" r="2.00" fill="#7b3294" opacity="0.92" /><circle cx="644.00" cy="500.00" r="4.20" fill="#13294b" opacity="0.92" /><circle cx="569.01" cy="626.39" r="2.00" fill="#e66101" opacity="0.92" /><circle cx="656.47" cy="600.56" r="4.20" fill="#13294b" opacity="0.92" /><circle cx="500.00" cy="686.00" r="2.00" fill="#b2182b" opacity="0.92" /><circle cx="594.71" cy="707.40" r="4.20" fill="#13294b" opacity="0.92" /><circle cx="405.29" cy="707.40" r="2.00" fill="#008c8c" opacity="0.92" /><circle cx="461.57" cy="767.25" r="4.20" fill="#13294b" opacity="0.92" /><circle cx="323.19" cy="704.05" r="4.20" fill="#13294b" opacity="0.92" /><circle cx="400.33" cy="478.32" r="2.00" fill="#7b3294" opacity="0.92" /><circle cx="361.83" cy="540.57" r="4.20" fill="#13294b" opacity="0.92" /><circle cx="391.17" cy="405.70" r="2.00" fill="#e66101" opacity="0.92" /><circle cx="321.53" cy="447.60" r="4.20" fill="#13294b" opacity="0.92" /><circle cx="422.73" cy="330.81" r="2.00" fill="#b2182b" opacity="0.92" /><circle cx="350.69" cy="327.69" r="4.20" fill="#13294b" opacity="0.92" /><circle cx="467.55" cy="274.32" r="4.20" fill="#13294b" opacity="0.92" /><circle cx="539.29" cy="454.66" r="2.00" fill="#2e8b57" opacity="0.92" /><circle cx="542.37" cy="407.22" r="4.20" fill="#13294b" opacity="0.92" /><circle cx="585.81" cy="444.85" r="4.20" fill="#13294b" opacity="0.92" /></g>
  <g><text x="489.60" y="485.68" font-size="10" fill="#2f6db3" font-family="Menlo,Consolas,monospace">@</text><text x="483.03" y="550.83" font-size="10" fill="#2e8b57" font-family="Menlo,Consolas,monospace">@</text><text x="592.72" y="547.05" font-size="10" fill="#7b3294" font-family="Menlo,Consolas,monospace">@</text><text x="649.00" y="495.00" font-size="10" fill="#13294b" font-family="Menlo,Consolas,monospace">ι</text><text x="661.47" y="595.56" font-size="10" fill="#13294b" font-family="Menlo,Consolas,monospace">ι</text><text x="599.71" y="702.40" font-size="10" fill="#13294b" font-family="Menlo,Consolas,monospace">ι</text><text x="466.57" y="762.25" font-size="10" fill="#13294b" font-family="Menlo,Consolas,monospace">ι</text><text x="328.19" y="699.05" font-size="10" fill="#13294b" font-family="Menlo,Consolas,monospace">ι</text><text x="405.33" y="473.32" font-size="10" fill="#7b3294" font-family="Menlo,Consolas,monospace">@</text><text x="366.83" y="535.57" font-size="10" fill="#13294b" font-family="Menlo,Consolas,monospace">ι</text><text x="326.53" y="442.60" font-size="10" fill="#13294b" font-family="Menlo,Consolas,monospace">ι</text><text x="355.69" y="322.69" font-size="10" fill="#13294b" font-family="Menlo,Consolas,monospace">ι</text><text x="472.55" y="269.32" font-size="10" fill="#13294b" font-family="Menlo,Consolas,monospace">ι</text><text x="544.29" y="449.66" font-size="10" fill="#2e8b57" font-family="Menlo,Consolas,monospace">@</text><text x="547.37" y="402.22" font-size="10" fill="#13294b" font-family="Menlo,Consolas,monospace">ι</text><text x="590.81" y="439.85" font-size="10" fill="#13294b" font-family="Menlo,Consolas,monospace">ι</text></g>
  <circle cx="500" cy="500" r="8" fill="#111827"/>
  <text x="24" y="976" font-size="12" fill="#6b7280" font-family="Inter,Arial,sans-serif">PHYS-lift witness: radial applicative tree / mandala render. Certificate must be audited separately.</text>
</svg>